<svg xmlns="http://www.w3.org/2000/svg" xmlns:xlink="http://www.w3.org/1999/xlink" version="1.1" x="0px" y="0px" viewBox="0 0 1024 1280" style="enable-background:new 0 0 1024 1024;" xml:space="preserve"><g><g><g><path d="M908.4,364c-32.5,0-65,0-97.5,0c-51.8,0-103.5,0-155.3,0c-11.9,0-23.7,0-35.6,0     c13.3,13.3,26.7,26.7,40,40c0-32.5,0-65,0-97.5c0-51.8,0-103.5,0-155.3c0-11.9,0-23.7,0-35.6c0-20.9-18.4-41-40-40     c-21.7,1-40,17.6-40,40c0,32.5,0,65,0,97.5c0,51.8,0,103.5,0,155.3c0,11.9,0,23.7,0,35.6c0,21.6,18.3,40,40,40     c32.5,0,65,0,97.5,0c51.8,0,103.5,0,155.3,0c11.9,0,23.7,0,35.6,0c20.9,0,41-18.4,40-40C947.4,382.3,930.8,364,908.4,364     L908.4,364z"/></g></g><g><g><path d="M895.7,71.8c-10.1,10.1-20.2,20.2-30.3,30.3c-24.2,24.2-48.4,48.4-72.7,72.7     c-29.3,29.3-58.6,58.6-87.9,87.9c-25.2,25.2-50.4,50.4-75.7,75.7c-12.3,12.3-24.8,24.4-36.9,36.9c-0.2,0.2-0.3,0.3-0.5,0.5     c-14.8,14.8-15.9,42,0,56.6c16,14.7,40.8,15.8,56.6,0c10.1-10.1,20.2-20.2,30.3-30.3c24.2-24.2,48.4-48.4,72.7-72.7     c29.3-29.3,58.6-58.6,87.9-87.9c25.2-25.2,50.4-50.4,75.7-75.7c12.3-12.3,24.8-24.4,36.9-36.9c0.2-0.2,0.3-0.3,0.5-0.5     c14.8-14.8,15.9-42,0-56.6C936.3,57.1,911.5,56,895.7,71.8L895.7,71.8z"/></g></g><g><g><path d="M115.6,660c32.5,0,65,0,97.5,0c51.8,0,103.5,0,155.3,0c11.9,0,23.7,0,35.6,0c-13.3-13.3-26.7-26.7-40-40     c0,32.5,0,65,0,97.5c0,51.8,0,103.5,0,155.3c0,11.9,0,23.7,0,35.6c0,20.9,18.4,41,40,40c21.7-1,40-17.6,40-40c0-32.5,0-65,0-97.5     c0-51.8,0-103.5,0-155.3c0-11.9,0-23.7,0-35.6c0-21.6-18.3-40-40-40c-32.5,0-65,0-97.5,0c-51.8,0-103.5,0-155.3,0     c-11.9,0-23.7,0-35.6,0c-20.9,0-41,18.4-40,40C76.6,641.7,93.2,660,115.6,660L115.6,660z"/></g></g><g><g><path d="M128.3,952.2c10.1-10.1,20.2-20.2,30.3-30.3c24.2-24.2,48.4-48.4,72.7-72.7     c29.3-29.3,58.6-58.6,87.9-87.9c25.2-25.2,50.4-50.4,75.7-75.7c12.3-12.3,24.8-24.4,36.9-36.9c0.2-0.2,0.3-0.3,0.5-0.5     c14.8-14.8,15.9-42,0-56.6c-16-14.7-40.8-15.8-56.6,0c-10.1,10.1-20.2,20.2-30.3,30.3c-24.2,24.2-48.4,48.4-72.7,72.7     c-29.3,29.3-58.6,58.6-87.9,87.9c-25.2,25.2-50.4,50.4-75.7,75.7c-12.3,12.3-24.8,24.4-36.9,36.9c-0.2,0.2-0.3,0.3-0.5,0.5     c-14.8,14.8-15.9,42,0,56.6C87.7,966.9,112.5,968,128.3,952.2L128.3,952.2z"/></g></g></g><g><g><g><path d="M364,115.6c0,32.5,0,65,0,97.5c0,51.8,0,103.5,0,155.3c0,11.9,0,23.7,0,35.6c13.3-13.3,26.7-26.7,40-40     c-32.5,0-65,0-97.5,0c-51.8,0-103.5,0-155.3,0c-11.9,0-23.7,0-35.6,0c-20.9,0-41,18.4-40,40c1,21.7,17.6,40,40,40     c32.5,0,65,0,97.5,0c51.8,0,103.5,0,155.3,0c11.9,0,23.7,0,35.6,0c21.6,0,40-18.3,40-40c0-32.5,0-65,0-97.5     c0-51.8,0-103.5,0-155.3c0-11.9,0-23.7,0-35.6c0-20.9-18.4-41-40-40C382.3,76.6,364,93.2,364,115.6L364,115.6z"/></g></g><g><g><path d="M71.8,128.3c10.1,10.1,20.2,20.2,30.3,30.3c24.2,24.2,48.4,48.4,72.7,72.7c29.3,29.3,58.6,58.6,87.9,87.9     c25.2,25.2,50.4,50.4,75.7,75.7c12.3,12.3,24.4,24.8,36.9,36.9c0.2,0.2,0.3,0.3,0.5,0.5c14.8,14.8,42,15.9,56.6,0     c14.7-16,15.8-40.8,0-56.6c-10.1-10.1-20.2-20.2-30.3-30.3c-24.2-24.2-48.4-48.4-72.7-72.7c-29.3-29.3-58.6-58.6-87.9-87.9     c-25.2-25.2-50.4-50.4-75.7-75.7c-12.3-12.3-24.4-24.8-36.9-36.9c-0.2-0.2-0.3-0.3-0.5-0.5c-14.8-14.8-42-15.9-56.6,0     C57.1,87.7,56,112.5,71.8,128.3L71.8,128.3z"/></g></g><g><g><path d="M660,908.4c0-32.5,0-65,0-97.5c0-51.8,0-103.5,0-155.3c0-11.9,0-23.7,0-35.6c-13.3,13.3-26.7,26.7-40,40     c32.5,0,65,0,97.5,0c51.8,0,103.5,0,155.3,0c11.9,0,23.7,0,35.6,0c20.9,0,41-18.4,40-40c-1-21.7-17.6-40-40-40     c-32.5,0-65,0-97.5,0c-51.8,0-103.5,0-155.3,0c-11.9,0-23.7,0-35.6,0c-21.6,0-40,18.3-40,40c0,32.5,0,65,0,97.5     c0,51.8,0,103.5,0,155.3c0,11.9,0,23.7,0,35.6c0,20.9,18.4,41,40,40C641.7,947.4,660,930.8,660,908.4L660,908.4z"/></g></g><g><g><path d="M952.2,895.7c-10.1-10.1-20.2-20.2-30.3-30.3c-24.2-24.2-48.4-48.4-72.7-72.7     c-29.3-29.3-58.6-58.6-87.9-87.9c-25.2-25.2-50.4-50.4-75.7-75.7c-12.3-12.3-24.4-24.8-36.9-36.9c-0.2-0.2-0.3-0.3-0.5-0.5     c-14.8-14.8-42-15.9-56.6,0c-14.7,16-15.8,40.8,0,56.6c10.1,10.1,20.2,20.2,30.3,30.3c24.2,24.2,48.4,48.4,72.7,72.7     c29.3,29.3,58.6,58.6,87.9,87.9c25.2,25.2,50.4,50.4,75.7,75.7c12.3,12.3,24.4,24.8,36.9,36.9c0.2,0.2,0.3,0.3,0.5,0.5     c14.8,14.8,42,15.9,56.6,0C966.9,936.3,968,911.5,952.2,895.7L952.2,895.7z"/></g></g></g><text x="0" y="1039" fill="#000000" font-size="5px" font-weight="bold" font-family="'Helvetica Neue', Helvetica, Arial-Unicode, Arial, Sans-serif">Created by shashank singh</text><text x="0" y="1044" fill="#000000" font-size="5px" font-weight="bold" font-family="'Helvetica Neue', Helvetica, Arial-Unicode, Arial, Sans-serif">from the Noun Project</text></svg>