<?xml version="1.0" encoding="UTF-8"?>
<svg width="36px" height="40px" viewBox="0 0 36 40" version="1.1" xmlns="http://www.w3.org/2000/svg" xmlns:xlink="http://www.w3.org/1999/xlink">
    <!-- Generator: Sketch 63.1 (92452) - https://sketch.com -->
    <title>assiette</title>
    <desc>Created with Sketch.</desc>
    <g id="Desktop" stroke="none" stroke-width="1" fill="none" fill-rule="evenodd">
        <g id="FicheRecette-Copy" transform="translate(-219.000000, -419.000000)">
            <g id="Section1" transform="translate(0.000000, 221.000000)">
                <g id="infosPictos" transform="translate(221.000000, 195.000000)">
                    <g id="moment" transform="translate(0.000000, 5.000000)">
                        <g id="assiette">
                            <path d="M32,16.0002204 C32,24.8365314 24.8368736,32 16,32 C7.16356724,32 0,24.8365314 0,16.0002204 C0,7.16346856 7.16356724,0 16,0 C24.8368736,0 32,7.16346856 32,16.0002204 Z" id="Stroke-1" stroke="#D5252F" stroke-width="2.07999992"></path>
                            <g id="couteau" transform="translate(15.000000, 5.000000)" stroke="#1F1F1F" stroke-width="2">
                                <line x1="8.22428672" y1="30.9338659" x2="8.70760531" y2="0.771733545" id="Path-5" transform="translate(8.465946, 15.852800) rotate(-30.000000) translate(-8.465946, -15.852800) "></line>
                                <path d="M4.809744,0.251831372 C6.93925871,0.217064701 8.69375542,1.9151935 8.72852209,4.04470821 C8.72920087,4.08628432 8.72920715,4.12786868 8.72854093,4.16944499 L8.52618328,16.7978402 L8.52618328,16.7978402 L4.54356855,16.8628608 L4.809744,0.251831372 Z" id="Path-6" fill="#FFFFFF" transform="translate(6.667964, 8.524836) rotate(-30.000000) translate(-6.667964, -8.524836) "></path>
                            </g>
                            <g id="fourchette" transform="translate(6.000000, 8.000000)" stroke="#1F1F1F" stroke-width="2">
                                <line x1="10.4970736" y1="30.7173913" x2="10.9811872" y2="0.139751553" id="Path-5" transform="translate(10.739130, 15.428571) rotate(-30.000000) translate(-10.739130, -15.428571) "></line>
                                <path d="M5.17233038,8.85153399 L5.14445205,10.6123878 C5.11620483,12.3965427 6.5396492,13.8657849 8.32380404,13.8940321 C8.35821675,13.8945769 8.39263596,13.8945719 8.42704851,13.8940169 C10.2861329,13.8640352 11.7858258,12.3639002 11.8152595,10.5048071 L11.8431378,8.7439532 L11.8431378,8.7439532 L5.17233038,8.85153399 Z" id="Path-4" fill="#FFFFFF" transform="translate(8.467391, 11.345880) rotate(-30.000000) translate(-8.467391, -11.345880) "></path>
                                <path d="M3.16762718,1.31779158 L3.01872047,10.7230554 C2.99047324,12.5072102 4.41391761,13.9764524 6.19807246,14.0046996 C6.23248516,14.0052445 6.26690437,14.0052394 6.30131692,14.0046844 C8.16040128,13.9747028 9.66009425,12.4745677 9.68952792,10.6154746 L9.83843464,1.21021078 L9.83843464,1.21021078" id="Path-4" transform="translate(6.402174, 7.634343) rotate(-30.000000) translate(-6.402174, -7.634343) "></path>
                            </g>
                        </g>
                    </g>
                </g>
            </g>
        </g>
    </g>
</svg>