<?xml version="1.0" encoding="UTF-8"?>
<svg width="41px" height="38px" viewBox="0 0 41 38" version="1.1" xmlns="http://www.w3.org/2000/svg" xmlns:xlink="http://www.w3.org/1999/xlink">
    <!-- Generator: Sketch 63.1 (92452) - https://sketch.com -->
    <title>marmite</title>
    <desc>Created with Sketch.</desc>
    <g id="Desktop" stroke="none" stroke-width="1" fill="none" fill-rule="evenodd">
        <g id="FicheRecette-Copy" transform="translate(-421.000000, -416.000000)" stroke="#1F1F1F" stroke-width="2">
            <g id="Section1" transform="translate(0.000000, 221.000000)">
                <g id="infosPictos" transform="translate(221.000000, 195.000000)">
                    <g id="difficulté" transform="translate(201.000000, 0.000000)">
                        <g id="marmite">
                            <path d="M16,0.5 C16,2.71486108 14.7258699,2.97054624 13.8383053,3.93610186 C13.3639432,4.45214646 13,5.17095887 13,6.5" id="Shape"></path>
                            <path d="M22,0.5 C22,2.71486108 20.7258699,2.97054624 19.8383053,3.93610186 C19.3639432,4.45214646 19,5.17095887 19,6.5" id="Shape-Copy"></path>
                            <path d="M29,0.5 C29,2.71486108 27.7258699,2.97054624 26.8383053,3.93610186 C26.3639432,4.45214646 26,5.17095887 26,6.5" id="Shape-Copy-2"></path>
                            <path d="M4.875,19 L34.125,19 L34.125,31 C34.125,34.3137085 31.4387085,37 28.125,37 L10.875,37 C7.5612915,37 4.875,34.3137085 4.875,31 L4.875,19 L4.875,19 Z" id="Rectangle" stroke-linejoin="round"></path>
                            <path d="M34.125,22 L39,22 L39,25.125 C39,27.8173882 36.8173882,30 34.125,30 L34.125,30 L34.125,30 L34.125,22 Z" id="Rectangle" stroke-linejoin="round"></path>
                            <path d="M0,22 L4.875,22 L4.875,25.125 C4.875,27.8173882 2.69238816,30 0,30 L0,30 L0,30 L0,22 Z" id="Rectangle-Copy" stroke-linejoin="round" transform="translate(2.437500, 26.000000) scale(-1, 1) translate(-2.437500, -26.000000) "></path>
                            <path d="M11.9117647,12 L28.0882353,12 C30.5247857,12 32.5,13.790861 32.5,16 L36,16 C36.8284271,16 37.5,16.6715729 37.5,17.5 C37.5,18.3284271 36.8284271,19 36,19 L3,19 C2.17157288,19 1.5,18.3284271 1.5,17.5 C1.5,16.6715729 2.17157288,16 3,16 L7.5,16 C7.5,13.790861 9.47521434,12 11.9117647,12 Z" id="Combined-Shape" fill="#D5252F"></path>
                            <line x1="19.5" y1="12" x2="19.5" y2="9" id="Path-2"></line>
                        </g>
                    </g>
                </g>
            </g>
        </g>
    </g>
</svg>