<?xml version="1.0" encoding="UTF-8"?>
<svg width="32px" height="36px" viewBox="0 0 32 36" version="1.1" xmlns="http://www.w3.org/2000/svg" xmlns:xlink="http://www.w3.org/1999/xlink">
    <!-- Generator: Sketch 63.1 (92452) - https://sketch.com -->
    <title>PictoChrono</title>
    <desc>Created with Sketch.</desc>
    <g id="Desktop" stroke="none" stroke-width="1" fill="none" fill-rule="evenodd">
        <g id="FicheRecette-Copy" transform="translate(-646.000000, -419.000000)" stroke-width="2.07999992">
            <g id="Section1" transform="translate(0.000000, 221.000000)">
                <g id="infosPictos" transform="translate(221.000000, 195.000000)">
                    <g id="minuteur" transform="translate(426.000000, 5.000000)">
                        <g id="PictoChrono">
                            <path d="M29,18.0001929 C29,25.731965 22.7322644,32 15,32 C7.26812133,32 1,25.731965 1,18.0001929 C1,10.268035 7.26812133,4 15,4 C22.7322644,4 29,10.268035 29,18.0001929 Z" id="Stroke-1" stroke="#020303"></path>
                            <polyline id="Stroke-3" stroke="#1F1F1F" points="15.4551717 4 15.4551717 1.07465577e-14 10 1.07465577e-14 21 1.07465577e-14"></polyline>
                            <line x1="5" y1="3" x2="-2.66453526e-15" y2="7" id="Stroke-5" stroke="#1F1F1F"></line>
                            <line x1="25" y1="3" x2="30" y2="7" id="Stroke-7" stroke="#1F1F1F"></line>
                            <polyline id="Stroke-9" stroke="#D5252F" points="15 9 15 19 20 15.0551779"></polyline>
                            <path d="M29,18.0001929 C29,25.731965 22.7322644,32 15,32 C7.26812133,32 1,25.731965 1,18.0001929 C1,10.268035 7.26812133,4 15,4 C22.7322644,4 29,10.268035 29,18.0001929 Z" id="Stroke-1" stroke="#1F1F1F"></path>
                        </g>
                    </g>
                </g>
            </g>
        </g>
    </g>
</svg>